<svg width="100" height="100" viewBox="0 0 100 100" fill="none" xmlns="http://www.w3.org/2000/svg">
  <path d="M24.777 38.979h-6.758A2.021 2.021 0 0 0 15.998 41v41.355c0 1.116.905 2.021 2.021 2.021h40.753a2.021 2.021 0 0 0 2.021-2.021V41a2.021 2.021 0 0 0-2.021-2.021H43.326V28.354H62.77a8.648 8.648 0 0 1 8.648 8.648v49.351a8.648 8.648 0 0 1-8.648 8.648H14.021a8.648 8.648 0 0 1-8.648-8.648V37.002a8.648 8.648 0 0 1 8.648-8.648h10.756v10.625z" fill="url(#assistly-logo-gradient)" />
  <path d="M75.223 61.021h6.758A2.021 2.021 0 0 0 84.002 59V17.646a2.021 2.021 0 0 0-2.021-2.021H41.228a2.021 2.021 0 0 0-2.021 2.021V59c0 1.116.905 2.021 2.021 2.021h15.446v10.625H37.23a8.648 8.648 0 0 1-8.648-8.648v-49.35A8.648 8.648 0 0 1 37.23 5h48.749a8.648 8.648 0 0 1 8.648 8.648v49.351a8.648 8.648 0 0 1-8.648 8.648H75.223V61.021z" fill="url(#assistly-logo-gradient)" />
  <defs>
    <linearGradient id="assistly-logo-gradient" x1="5" y1="95" x2="95" y2="5" gradientUnits="userSpaceOnUse">
      <stop offset="0.05" stop-color="#85a2f5" />
      <stop offset="0.95" stop-color="#134be7" />
    </linearGradient>
  </defs>
</svg> 